<svg width="24" height="24" viewBox="0 0 24 24" fill="none" xmlns="http://www.w3.org/2000/svg">
  <path d="M12 2C17.5 2 22 6.5 22 12C22 17.5 17.5 22 12 22C6.5 22 2 17.5 2 12C2 6.5 6.5 2 12 2Z" fill="#F5F5F5" stroke="#CCCCCC" stroke-width="1.5"/>
  <path d="M12 2C17.5 2 22 6.5 22 12C22 14 21.5 15.8 20.5 17.3L18 15C19 13.8 19.5 12.4 19.5 11C19.5 8 17 5.5 14 5.5C11 5.5 8.5 8 8.5 11C8.5 12.4 9 13.8 10 15L7.5 17.3C6.5 15.8 6 14 6 12C6 6.5 8.5 2 12 2Z" fill="#E8E8E8"/>
  <circle cx="9" cy="8" r="1.5" fill="#FF6B6B"/>
  <circle cx="15" cy="9" r="1.5" fill="#4ECDC4"/>
  <circle cx="12" cy="6" r="1.5" fill="#45B7D1"/>
  <circle cx="16" cy="13" r="1.5" fill="#96CEB4"/>
  <circle cx="8" cy="14" r="1.5" fill="#FFEAA7"/>
  <circle cx="12" cy="11" r="1.5" fill="#DDA0DD"/>
  <ellipse cx="12" cy="18" rx="2" ry="1" fill="#8B4513"/>
  <rect x="11.5" y="15" width="1" height="3" fill="#8B4513"/>
</svg>