<svg width="24" height="24" viewBox="0 0 24 24" fill="none" xmlns="http://www.w3.org/2000/svg">
  <circle cx="12" cy="12" r="10" fill="#E8F5E8" stroke="#4CAF50" stroke-width="1.5"/>
  <path d="M8 12L10 8L14 10L16 6" stroke="#4CAF50" stroke-width="2" stroke-linecap="round" stroke-linejoin="round" fill="none"/>
  <circle cx="8" cy="12" r="1" fill="#4CAF50"/>
  <circle cx="10" cy="8" r="1" fill="#4CAF50"/>
  <circle cx="14" cy="10" r="1" fill="#4CAF50"/>
  <circle cx="16" cy="6" r="1" fill="#4CAF50"/>
  <path d="M6 18C8 16 10 17 12 15C14 17 16 16 18 18" stroke="#81C784" stroke-width="1.5" stroke-linecap="round" fill="none"/>
  <rect x="11" y="14" width="2" height="6" fill="#4CAF50" rx="1"/>
  <path d="M9 16L12 14L15 16" fill="#66BB6A"/>
  <circle cx="12" cy="4" r="1.5" fill="#FFC107"/>
  <path d="M10.5 4.5L13.5 3.5M13.5 4.5L10.5 3.5" stroke="#FFC107" stroke-width="1" stroke-linecap="round"/>
</svg>