<svg width="400" height="400" viewBox="0 0 400 400" xmlns="http://www.w3.org/2000/svg">
  <defs>
    <linearGradient id="greenGradient2" x1="0%" y1="0%" x2="100%" y2="100%">
      <stop offset="0%" style="stop-color:#22c55e;stop-opacity:1" />
      <stop offset="50%" style="stop-color:#16a34a;stop-opacity:1" />
      <stop offset="100%" style="stop-color:#15803d;stop-opacity:1" />
    </linearGradient>
    <linearGradient id="purpleAccent2" x1="0%" y1="0%" x2="100%" y2="100%">
      <stop offset="0%" style="stop-color:#6366f1;stop-opacity:0.7" />
      <stop offset="100%" style="stop-color:#8b5cf6;stop-opacity:0.5" />
    </linearGradient>
    <filter id="glow2">
      <feGaussianBlur stdDeviation="4" result="coloredBlur"/>
      <feMerge> 
        <feMergeNode in="coloredBlur"/>
        <feMergeNode in="SourceGraphic"/> 
      </feMerge>
    </filter>
  </defs>
  
  <!-- Rotated and more complex torus shape -->
  <g transform="translate(200,200) rotate(30)" filter="url(#glow2)">
    <!-- Multiple interwoven rings -->
    <path d="M -110,0 A 110,110 0 0,1 0,-110 A 110,110 0 0,1 110,0 A 110,110 0 0,1 0,110 A 110,110 0 0,1 -110,0" 
          fill="none" stroke="url(#greenGradient2)" stroke-width="22" opacity="0.9"/>
    
    <path d="M -90,0 A 90,90 0 0,0 0,90 A 90,90 0 0,0 90,0 A 90,90 0 0,0 0,-90 A 90,90 0 0,0 -90,0" 
          fill="none" stroke="url(#greenGradient2)" stroke-width="18" opacity="0.8"/>
    
    <path d="M -70,0 A 70,70 0 0,1 0,-70 A 70,70 0 0,1 70,0 A 70,70 0 0,1 0,70 A 70,70 0 0,1 -70,0" 
          fill="none" stroke="url(#greenGradient2)" stroke-width="15" opacity="0.7"/>
    
    <!-- Twisted ribbon elements -->
    <ellipse cx="0" cy="0" rx="50" ry="25" fill="url(#greenGradient2)" opacity="0.6" transform="rotate(60)"/>
    <ellipse cx="0" cy="0" rx="25" ry="50" fill="url(#greenGradient2)" opacity="0.5" transform="rotate(-30)"/>
    <ellipse cx="0" cy="0" rx="40" ry="20" fill="url(#greenGradient2)" opacity="0.4" transform="rotate(120)"/>
    
    <!-- Purple accent spirals -->
    <path d="M -80,0 A 80,80 0 0,1 0,-80 A 40,40 0 0,0 0,0 A 40,40 0 0,1 80,0" 
          fill="none" stroke="url(#purpleAccent2)" stroke-width="4" opacity="0.8"/>
    <path d="M 0,80 A 80,80 0 0,1 80,0 A 40,40 0 0,0 0,0 A 40,40 0 0,1 0,-80" 
          fill="none" stroke="url(#purpleAccent2)" stroke-width="4" opacity="0.8"/>
    
    <!-- Central elements -->
    <circle cx="0" cy="0" r="20" fill="url(#greenGradient2)" opacity="0.9"/>
    <circle cx="0" cy="0" r="12" fill="#ffffff" opacity="0.4"/>
    <circle cx="0" cy="0" r="6" fill="url(#greenGradient2)" opacity="1"/>
  </g>
  
  <!-- Animated floating elements -->
  <circle cx="60" cy="80" r="4" fill="#22c55e" opacity="0.7">
    <animate attributeName="cx" values="60;70;60" dur="6s" repeatCount="indefinite"/>
    <animate attributeName="cy" values="80;70;80" dur="4s" repeatCount="indefinite"/>
  </circle>
  <circle cx="340" cy="120" r="3" fill="#16a34a" opacity="0.6">
    <animate attributeName="cx" values="340;330;340" dur="5s" repeatCount="indefinite"/>
  </circle>
  <circle cx="120" cy="340" r="3.5" fill="#4ade80" opacity="0.5">
    <animate attributeName="cy" values="340;330;340" dur="7s" repeatCount="indefinite"/>
  </circle>
  <circle cx="300" cy="300" r="2" fill="#8b5cf6" opacity="0.6">
    <animate attributeName="cx" values="300;310;300" dur="4s" repeatCount="indefinite"/>
    <animate attributeName="cy" values="300;290;300" dur="6s" repeatCount="indefinite"/>
  </circle>
</svg>