<svg width="400" height="400" viewBox="0 0 400 400" xmlns="http://www.w3.org/2000/svg">
  <defs>
    <linearGradient id="greenGradient" x1="0%" y1="0%" x2="100%" y2="100%">
      <stop offset="0%" style="stop-color:#4ade80;stop-opacity:1" />
      <stop offset="50%" style="stop-color:#22c55e;stop-opacity:1" />
      <stop offset="100%" style="stop-color:#16a34a;stop-opacity:1" />
    </linearGradient>
    <linearGradient id="purpleAccent" x1="0%" y1="0%" x2="100%" y2="100%">
      <stop offset="0%" style="stop-color:#8b5cf6;stop-opacity:0.8" />
      <stop offset="100%" style="stop-color:#6366f1;stop-opacity:0.6" />
    </linearGradient>
    <filter id="glow">
      <feGaussianBlur stdDeviation="3" result="coloredBlur"/>
      <feMerge> 
        <feMergeNode in="coloredBlur"/>
        <feMergeNode in="SourceGraphic"/> 
      </feMerge>
    </filter>
  </defs>
  
  <!-- Main torus/spiral shape -->
  <g transform="translate(200,200)" filter="url(#glow)">
    <!-- Outer spiral rings -->
    <path d="M -120,0 A 120,120 0 0,1 0,-120 A 120,120 0 0,1 120,0 A 120,120 0 0,1 0,120 A 120,120 0 0,1 -120,0" 
          fill="none" stroke="url(#greenGradient)" stroke-width="25" opacity="0.9"/>
    
    <path d="M -100,0 A 100,100 0 0,1 0,-100 A 100,100 0 0,1 100,0 A 100,100 0 0,1 0,100 A 100,100 0 0,1 -100,0" 
          fill="none" stroke="url(#greenGradient)" stroke-width="20" opacity="0.8"/>
    
    <path d="M -80,0 A 80,80 0 0,1 0,-80 A 80,80 0 0,1 80,0 A 80,80 0 0,1 0,80 A 80,80 0 0,1 -80,0" 
          fill="none" stroke="url(#greenGradient)" stroke-width="18" opacity="0.7"/>
    
    <!-- Inner twisted elements -->
    <ellipse cx="0" cy="0" rx="60" ry="30" fill="url(#greenGradient)" opacity="0.6" transform="rotate(45)"/>
    <ellipse cx="0" cy="0" rx="30" ry="60" fill="url(#greenGradient)" opacity="0.5" transform="rotate(-45)"/>
    
    <!-- Purple accent lines -->
    <path d="M -90,0 A 90,90 0 0,0 0,90 A 90,90 0 0,0 90,0" 
          fill="none" stroke="url(#purpleAccent)" stroke-width="3" opacity="0.8"/>
    <path d="M 0,-90 A 90,90 0 0,0 -90,0 A 90,90 0 0,0 0,90" 
          fill="none" stroke="url(#purpleAccent)" stroke-width="3" opacity="0.8"/>
    
    <!-- Central core -->
    <circle cx="0" cy="0" r="25" fill="url(#greenGradient)" opacity="0.9"/>
    <circle cx="0" cy="0" r="15" fill="#ffffff" opacity="0.3"/>
  </g>
  
  <!-- Floating particles -->
  <circle cx="80" cy="100" r="3" fill="#4ade80" opacity="0.6">
    <animate attributeName="cy" values="100;90;100" dur="3s" repeatCount="indefinite"/>
  </circle>
  <circle cx="320" cy="150" r="2" fill="#22c55e" opacity="0.5">
    <animate attributeName="cy" values="150;140;150" dur="4s" repeatCount="indefinite"/>
  </circle>
  <circle cx="150" cy="320" r="2.5" fill="#16a34a" opacity="0.4">
    <animate attributeName="cy" values="320;310;320" dur="5s" repeatCount="indefinite"/>
  </circle>
</svg>